<svg width="20" height="19" viewBox="0 0 20 19" fill="none" xmlns="http://www.w3.org/2000/svg">
<path fill-rule="evenodd" clip-rule="evenodd" d="M10.4305 15.9959C10.2848 15.9194 10.1108 15.9194 9.96513 15.9959L4.87435 18.6723C4.50754 18.8652 4.07882 18.5537 4.14888 18.1452L5.12113 12.4766C5.14895 12.3144 5.09517 12.1489 4.97733 12.034L0.858802 8.01943C0.562043 7.73017 0.725799 7.22618 1.13591 7.16659L6.82758 6.33954C6.99043 6.31588 7.13121 6.21359 7.20404 6.06602L9.74944 0.908493C9.93284 0.53687 10.4628 0.53687 10.6462 0.908493L13.1916 6.06602C13.2644 6.21359 13.4052 6.31588 13.568 6.33954L19.2597 7.16659C19.6698 7.22618 19.8336 7.73017 19.5368 8.01943L15.4183 12.034C15.3004 12.1489 15.2467 12.3144 15.2745 12.4766L16.2467 18.1452C16.3168 18.5537 15.8881 18.8652 15.5213 18.6723L10.4305 15.9959Z" fill="#F0BB65"/>
</svg>
