<svg width="20" height="19" viewBox="0 0 20 19" fill="none" xmlns="http://www.w3.org/2000/svg">
<path fill-rule="evenodd" clip-rule="evenodd" d="M10.6503 15.9959C10.5046 15.9194 10.3306 15.9194 10.1849 15.9959L5.09414 18.6723C4.72733 18.8652 4.29861 18.5537 4.36866 18.1452L5.34092 12.4766C5.36874 12.3144 5.31496 12.1489 5.19712 12.034L1.07859 8.01943C0.781831 7.73017 0.945586 7.22618 1.3557 7.16659L7.04736 6.33954C7.21022 6.31588 7.351 6.21359 7.42383 6.06602L9.96922 0.908493C10.1526 0.53687 10.6826 0.53687 10.866 0.908493L13.4114 6.06602C13.4842 6.21359 13.625 6.31588 13.7878 6.33954L19.4795 7.16659C19.8896 7.22618 20.0534 7.73017 19.7566 8.01943L15.6381 12.034C15.5202 12.1489 15.4664 12.3144 15.4943 12.4766L16.4665 18.1452C16.5366 18.5537 16.1079 18.8652 15.741 18.6723L10.6503 15.9959Z" fill="#C1C0CD"/>
</svg>
